<svg xmlns="http://www.w3.org/2000/svg" viewBox="0 0 512 512">
  <path d="M 47.400391 5.3007812 C 42.600391 5.3007812 38.499609 8.7007812 37.599609 13.300781 L 37.400391 13.300781 L 37.400391 15.300781 L 37.400391 67.599609 L 37.400391 249.19922 C 27.800391 252.39922 20.900391 261.4 20.900391 272 L 20.900391 318.90039 C 20.900391 349.10039 34.4 379.90039 57 401.40039 C 59 403.40039 61.1 405.30039 63.5 406.90039 L 207 502.59961 C 210.9 505.29961 215.50039 506.69922 220.40039 506.69922 L 291.59961 506.69922 C 296.49961 506.69922 301.1 505.29961 305 502.59961 L 448.59961 406.80078 C 451.59961 404.80078 454.20039 402.50039 456.40039 399.90039 C 478.10039 378.50039 491 348.30078 491 318.80078 L 491 272 C 491.1 258.8 480.29961 248 467.09961 248 L 447.90039 248 C 446.80039 238.6 445.89922 229.39922 445.19922 220.69922 L 445.19922 186.80078 C 445.19922 143.50078 426.89922 106.60078 392.19922 80.300781 C 358.29922 54.500781 311.19961 40.800781 256.09961 40.800781 C 200.99961 40.800781 153.9 54.400781 120 80.300781 C 85.3 106.70078 67 143.50078 67 186.80078 L 67 220.69922 C 66.3 229.39922 65.400781 238.6 64.300781 248 L 53.400391 248 L 53.400391 65.199219 L 90.099609 59.5 C 96.099609 58.6 101.39961 55.500391 105.09961 50.900391 L 130.19922 20 C 132.39922 17.4 132.90039 13.6 131.40039 10.5 C 129.90039 7.3 126.70078 5.3007813 123.30078 5.3007812 L 47.400391 5.3007812 z M 53.400391 21.300781 L 108.59961 21.300781 L 92.699219 40.900391 C 91.499219 42.400391 89.699219 43.399219 87.699219 43.699219 L 53.400391 49 L 53.400391 21.300781 z M 256.09961 56.800781 C 307.69961 56.800781 351.4 69.3 382.5 93 C 410.8 114.6 426.80039 144.09922 428.90039 178.69922 L 83.300781 178.69922 C 85.400781 144.09922 101.29922 114.6 129.69922 93 C 160.79922 69.3 204.59961 56.800781 256.09961 56.800781 z M 337.09961 122.80078 C 332.69961 122.80078 329.09961 126.40078 329.09961 130.80078 L 329.09961 160.80078 C 329.09961 165.20078 332.69961 168.80078 337.09961 168.80078 C 341.49961 168.80078 345.09961 165.20078 345.09961 160.80078 L 345.09961 130.80078 C 345.09961 126.40078 341.49961 122.80078 337.09961 122.80078 z M 365.09961 122.80078 C 360.69961 122.80078 357.09961 126.40078 357.09961 130.80078 L 357.09961 160.80078 C 357.09961 165.20078 360.69961 168.80078 365.09961 168.80078 C 369.49961 168.80078 373.09961 165.20078 373.09961 160.80078 L 373.09961 130.80078 C 373.09961 126.40078 369.49961 122.80078 365.09961 122.80078 z M 393.09961 122.80078 C 388.69961 122.80078 385.09961 126.40078 385.09961 130.80078 L 385.09961 160.80078 C 385.09961 165.20078 388.69961 168.80078 393.09961 168.80078 C 397.49961 168.80078 401.09961 165.20078 401.09961 160.80078 L 401.09961 130.80078 C 401.09961 126.40078 397.49961 122.80078 393.09961 122.80078 z M 83.099609 194.80078 L 429.30078 194.80078 L 429.30078 221 L 429.30078 221.59961 C 430.40078 235.49961 432.09961 250.60078 434.09961 265.80078 C 433.59961 266.10078 433 266.39922 432.5 266.69922 C 402.4 283.79922 374.10039 299.90078 352.40039 334.30078 C 317.40039 386.60078 319.3 454.3 320.5 473 L 303.5 484.40039 L 294.5 289.30078 C 360.2 280.70078 404.19961 260.50039 412.59961 256.40039 L 413.09961 256.19922 C 416.29961 254.39922 418.19922 251.10039 418.19922 247.40039 L 417.40039 230.5 L 417.40039 230.19922 C 417.00039 224.89922 412.49961 221 407.09961 221 L 104.69922 221 C 99.299219 221 94.900391 224.99922 94.400391 230.19922 L 93.599609 246.80078 C 93.299609 250.60078 95.299219 254.19922 98.699219 256.19922 L 99.199219 256.40039 C 107.49922 260.50039 151.60078 280.70078 217.30078 289.30078 L 208.30078 484.30078 L 192.40039 473.69922 C 193.70039 456.49922 195.4 393.4 161 330 C 145.8 302 117.79922 286.89922 90.699219 272.19922 C 86.599219 269.99922 82.500391 267.8 78.400391 265.5 C 80.400391 250.4 81.999609 235.49922 83.099609 221.69922 L 83.099609 194.80078 z M 110.09961 236.80078 L 401.69922 236.80078 L 402 243.59961 C 388.3 249.99961 346.59922 267 287.19922 274 C 282.09922 274.6 278.30078 278.9 278.30078 284 L 278.30078 284.19922 L 287.80078 490.69922 L 224 490.69922 L 233.5 284.5 L 233.5 284.09961 C 233.5 278.89961 229.69961 274.6 224.59961 274 C 165.19961 267 123.60078 249.89961 109.80078 243.59961 L 110.09961 236.80078 z M 44.900391 264 L 62.300781 264 C 58.200781 295.3 52.900391 327.29922 48.900391 351.19922 C 48.300391 354.89922 47.699219 358.39961 47.199219 361.59961 C 40.499219 348.19961 36.900391 333.5 36.900391 319 L 36.900391 272 C 36.900391 267.6 40.500391 264 44.900391 264 z M 449.80078 264 L 467 264 C 471.4 264 475 267.6 475 272 L 475 318.90039 L 475.09961 318.90039 C 475.09961 333.30039 471.50039 347.89922 464.90039 361.19922 C 464.40039 358.29922 463.90078 355.10078 463.30078 351.80078 C 459.30078 327.80078 453.90078 295.5 449.80078 264 z M 75.900391 282.40039 C 78.300391 283.70039 80.6 284.99922 83 286.19922 C 109.2 300.29922 133.90078 313.7 146.80078 337.5 C 174.30078 388.1 177.09922 439.69922 176.69922 463.19922 L 72.5 393.59961 C 64.7 388.29961 60.599609 379.00078 62.099609 369.80078 C 62.899609 365.10078 63.799219 359.70078 64.699219 353.80078 C 67.999219 334.00078 72.200391 308.50039 75.900391 282.40039 z M 436.19922 283 C 439.89922 309.1 444.2 334.7 447.5 354.5 C 448.4 360.2 449.3 365.30078 450 369.80078 C 451.1 376.70078 449.10078 383.70039 444.80078 388.90039 L 443.90039 389.80078 L 444 389.90039 C 442.8 391.20039 441.40078 392.5 439.80078 393.5 L 336 462.69922 C 335.5 437.99922 337.99961 384.49922 365.59961 343.19922 L 365.69922 343 C 384.29922 313.4 408.39922 298.8 436.19922 283 z "/>
</svg>