<svg xmlns="http://www.w3.org/2000/svg" viewBox="0 0 280.40598 119.99976">
  <path d="m 134.68794,0 -3.54372,0.005 -80.287637,0.11919 c -4.624618,0 -8.919699,1.99819 -12.090777,5.62607 -2.571001,2.94157 -4.258062,6.82264 -4.512774,10.38154 -0.430269,5.97468 0.945283,8.13404 7.542593,15.56712 1.914763,2.15666 3.735032,4.20821 4.342627,5.07936 -0.0097,0.0349 -0.01888,0.0571 -0.02419,0.07 -0.0066,0.005 -0.01694,0.0136 -0.03109,0.0233 l -0.362748,0.2522 H 3.537669 0 v 3.53766 14.20855 3.53767 h 3.537669 27.536122 2.183405 1.970074 c 12.612676,0 18.838323,-0.0119 22.506002,-0.2807 4.196559,-0.30734 5.53501,-1.02753 7.540868,-2.27323 l 0.250467,-0.15547 c 6.30678,-3.90072 9.55696,-13.18898 6.819688,-19.48913 -0.844618,-1.92715 -6.191805,-8.732 -6.798957,-9.50144 -1.678624,-2.1257 -4.449808,-5.63423 -4.888479,-6.64954 0.01061,-0.0854 0.03144,-0.17346 0.05355,-0.23492 0.07296,-0.0186 0.21226,-0.0432 0.442209,-0.0432 l 26.028983,-0.0743 v 35.16336 3.53766 h 3.537669 15.10074 3.53766 V 54.86909 19.72646 h 21.7926 3.53767 v -3.53767 -12.647 z m 10.68296,0.4163 -0.82223,2.38292 -17.57347,50.91703 -1.61942,4.69156 h 4.96362 14.75699 2.60402 l 0.77386,-2.48656 1.53046,-4.91784 20.62143,0.0916 1.59092,5.20632 0.7609,2.48914 2.60402,0.0147 14.49097,0.0795 4.99558,0.0276 -1.63237,-4.72092 -17.76781,-51.39379 -0.82655,-2.38119 h -2.51937 -24.41044 z m 54.81141,0 v 3.53767 50.91531 3.53767 h 3.53767 16.38072 3.55063 l -0.013,-3.54976 -0.0389,-11.15022 0.37139,0.35324 c 11.04902,10.51263 14.30843,12.90025 16.45845,13.62901 1.65076,0.55674 4.41391,0.71773 19.5401,0.71773 h 16.8307 3.6059 l -0.0691,-3.60504 -0.26947,-14.00989 -0.0648,-3.41934 -3.42021,-0.0492 -26.26823,-0.37656 -0.55017,-0.42753 c -0.17512,-0.13664 -0.38809,-0.31737 -0.61495,-0.52167 0.19723,-0.11674 0.37766,-0.22411 0.53376,-0.31697 6.63446,-3.95909 10.11213,-10.35049 9.53858,-17.53461 -0.38162,-4.84617 -1.24682,-7.02935 -4.20962,-10.61301 -2.9115,-3.52396 -6.90786,-5.88087 -11.253,-6.63572 C 241.3443,0.47864 229.21842,0.41634 222.20454,0.41634 h -18.48466 z m -69.03204,3.12655 v 12.64699 h -25.33026 v 38.6803 H 90.719271 V 16.15875 l -29.566652,0.0846 c -3.564202,0 -4.041203,2.8385 -4.041203,3.92633 0,1.33547 0.870739,2.67105 5.655437,8.7293 3.104304,3.93566 5.956687,7.86278 6.332564,8.72067 2.051848,4.72279 -0.600988,12.08117 -5.434328,15.0705 C 60.220284,54.8185 60.808598,54.8701 35.22727,54.8701 H 31.073791 3.537669 V 40.66242 h 43.292396 l 1.2774,-0.88873 c 0.862306,-0.60141 1.361896,-1.42878 1.552046,-2.56084 0.265325,-1.62733 0.128758,-1.83928 -5.217545,-7.86216 C 38.122804,22.23113 37.45483,20.9309 37.782064,16.385 38.15352,11.19789 42.779053,3.66286 50.862628,3.66286 Z m 16.74174,0.41112 h 24.41044 l 17.7678,51.39293 -14.49183,-0.0795 -2.35183,-7.69892 -25.84243,-0.11487 -2.30864,7.41563 H 130.3194 Z m 55.82625,0 h 18.48639 c 11.46249,0 19.417,0.16306 20.94704,0.42839 3.53767,0.61467 6.73502,2.50321 9.13179,5.4041 2.50732,3.03355 3.0826,4.48444 3.40984,8.6412 0.46918,5.86811 -2.32212,10.93071 -7.82761,14.21632 -1.60522,0.95959 -3.2538,1.89317 -3.6655,2.0789 -0.63236,0.28743 -0.54862,0.56139 0.58299,1.88802 0.7292,0.85346 1.99505,2.06926 2.80872,2.70162 l 1.48554,1.15475 27.45235,0.39298 0.26947,14.00903 h -16.8307 c -13.01818,0 -17.18471,-0.11905 -18.40521,-0.5303 -1.82632,-0.6191 -6.22165,-4.34208 -15.15515,-12.84133 l -6.37661,-6.06741 0.0674,19.43904 h -16.38072 z m -43.12657,7.2213 c -0.0628,-0.002 -9.18869,25.33458 -8.99014,25.33458 l 17.60025,-0.0225 c 0,0 8.9e-4,8.8e-4 8.9e-4,8.8e-4 0.0601,0 -8.55349,-25.2953 -8.61098,-25.31299 z m 59.19895,3.04191 V 26.8469 h 8.69908 c 8.46431,0 8.7282,-0.0263 9.93587,-0.93278 2.15842,-1.61849 2.92291,-3.28593 2.69384,-5.84631 -0.23437,-2.63999 -1.2517,-4.01529 -3.80368,-5.12081 -1.43718,-0.62794 -2.8216,-0.72982 -9.60508,-0.72982 z m 3.53767,3.53767 h 4.38236 c 6.20286,0 7.43157,0.10366 8.18863,0.43443 1.43718,0.62263 1.58352,0.92468 1.69628,2.19205 0.11321,1.25941 -0.0429,1.76588 -1.29207,2.70248 -0.0411,0.0305 -0.0724,0.0544 -0.0985,0.0734 -0.82471,0.15256 -3.88536,0.15288 -7.71532,0.15288 h -5.16055 z m -62.82558,4.01788 c 1.30363,3.82245 2.74562,8.06768 3.79764,11.18304 l -7.78357,0.0104 c 1.09138,-3.1074 2.61066,-7.36609 3.98593,-11.19341 z m -32.84263,39.41357 -2.51765,0.003 -24.1401,0.0225 -2.519382,0.003 -0.821367,2.38119 -17.591611,50.95504 -1.60214,4.6406 4.909206,0.051 14.37178,0.15114 2.667934,0.0276 0.76004,-2.55652 1.53305,-5.15708 20.71903,0.16582 1.64015,5.23914 0.78077,2.49347 2.61179,-0.0121 14.51689,-0.0656 4.95066,-0.0233 -1.62546,-4.67601 -17.81617,-51.26079 z m 116.23868,0.21074 c -7.08948,0 -11.2823,2.79817 -13.55127,5.14585 -3.69112,3.81759 -4.56055,8.6248 -4.49377,10.89112 0.004,0.18882 0.001,0.38263 -8.9e-4,0.58472 -0.0323,3.68315 0.50996,7.85278 7.36641,14.70171 1.35537,1.5265 3.62295,4.08566 4.47995,5.35746 -1.87408,0.23039 -6.62416,0.2306 -11.61316,0.2306 h -2.11863 l -2.57206,-8.8e-4 c -8.80172,0 -16.22415,-0.0253 -17.74535,-0.32561 -0.2127,-0.13886 -0.51139,-0.37767 -0.83951,-0.66245 3.04107,-1.87275 6.1164,-4.77546 7.56419,-7.25757 0.87867,-1.50926 1.8474,-4.0875 2.25423,-6.00005 0.9021,-4.25626 -0.58635,-9.3909 -3.98075,-13.7387 -3.96042,-5.07257 -9.72199,-8.10749 -15.80723,-8.32682 l -0.0639,-0.003 h -0.0639 -15.38489 -20.01858 -3.54457 l 0.007,3.54544 0.0976,50.84449 0.007,3.51521 3.51521,0.0156 15.8746,0.07 3.53249,0.0156 0.0207,-3.53162 0.0691,-11.81008 c 0.32414,0.30777 0.65871,0.62794 1.00275,0.95783 10.71339,10.27693 14.30965,13.12371 17.49488,13.84407 0.87513,0.19501 2.32311,0.51804 28.09061,0.52512 h 1.22902 c 13.94992,0 20.95177,8.8e-4 25.11694,-0.40162 4.77099,-0.46122 6.30542,-1.544 8.60579,-3.41675 l 0.076,-0.0622 c 4.72499,-3.84147 7.2181,-9.6529 6.50703,-15.16724 -0.46344,-3.58631 -1.41236,-5.07662 -5.27196,-9.89183 l -1.14698,-1.43286 c -1.34431,-1.67995 -2.96802,-3.70863 -4.05674,-5.07417 -0.87823,-1.09845 -1.56864,-2.07344 -1.98476,-2.71198 0.54657,-0.001 1.2563,-0.003 2.17477,-0.003 7.25001,0 21.6182,0.0483 21.76236,0.0492 l 3.54113,0.0112 0.01,-3.54113 0.0328,-13.40185 0.01,-3.54459 h -3.54717 z m -242.97204207,0.19519 1.59177857,4.68033 17.3255955,50.92049 0.816186,2.39847 h 2.533199 10.00756 2.475334 l 0.848143,-2.32591 7.820699,-21.44712 c 0.673926,1.96075 1.402403,4.07419 2.130721,6.18574 2.692608,7.80719 5.390284,15.59908 5.390284,15.59908 l 0.824821,2.38032 h 2.518515 10.108615 2.526289 l 0.819638,-2.38896 17.546701,-51.12692 1.609051,-4.68637 H 82.86489 68.320369 65.797534 l -0.821367,2.38551 c -1.315129,3.81847 -3.060911,8.85778 -4.553365,13.12289 -0.225084,-0.64696 -0.458986,-1.32636 -0.701316,-2.03831 L 55.887572,63.99242 55.071384,61.59482 H 52.539049 36.287881 33.782318 l -0.831728,2.36392 -4.622464,13.1367 C 26.80118,72.80337 25.030321,67.80137 23.677162,63.96565 l -0.831732,-2.35874 -2.502106,-0.002 -14.4728317,-0.01 z m 124.21830207,3.13433 17.81617,51.26079 -14.51774,0.0665 -2.40969,-7.69892 -25.9573,-0.20815 -2.29137,7.70756 -14.37178,-0.15028 17.59161,-50.95505 z m 151.38995,0.20815 -0.0328,13.40099 c 0,0 -14.43556,-0.0484 -21.77446,-0.0484 -2.44143,0 -4.09722,0.006 -4.17593,0.0199 -1.26472,0.23039 -2.0696,2.91967 -1.71097,4.09993 0.17644,0.59698 1.49905,2.54736 2.93136,4.3383 1.42789,1.79139 3.77615,4.72302 5.2089,6.51308 3.67874,4.59057 4.18395,5.49649 4.52401,8.13249 0.55276,4.28103 -1.47259,8.91507 -5.23137,11.97073 -3.76673,3.0645 -3.6017,3.08596 -31.56609,3.08596 h -1.22816 c -17.00735,-0.004 -26.00133,-0.14517 -27.31071,-0.43703 -2.32601,-0.52622 -6.03217,-3.55062 -15.82709,-12.94755 -3.52308,-3.37671 -6.76957,-6.33341 -6.93629,-6.3343 -0.004,0 -0.007,0.003 -0.007,0.007 l -0.11487,19.71369 -15.87546,-0.0708 -0.0976,-50.84535 H 177.33 192.71402 c 10.6705,0.38516 17.89218,11.01552 16.455,17.79457 -0.32723,1.53845 -1.15887,3.76858 -1.84916,4.95326 -1.41949,2.43214 -5.03179,5.55363 -7.96407,6.89396 -1.08297,0.48997 -1.96749,1.06103 -1.96749,1.26444 0,0.75618 3.56468,4.26608 4.89971,4.82371 1.14046,0.47714 4.46144,0.58385 19.10739,0.58385 1.71665,0 3.27649,8.8e-4 4.69155,8.8e-4 14.72245,0 13.98151,-0.10665 15.11887,-2.53924 0.79642,-1.69366 0.19091,-2.70573 -5.41187,-9.01605 -7.09789,-7.06251 -6.35475,-10.44562 -6.40339,-12.9441 -0.10126,-2.99375 2.25551,-12.41207 14.50911,-12.41207 z M 36.287019,65.13249 h 16.25203 v 8.9e-4 l 3.833914,11.25904 c 2.0744,6.08833 3.925853,10.95762 4.167299,10.95762 0.004,0 0.0081,-0.002 0.01123,-0.004 0.265325,-0.23437 7.76888,-22.02665 7.76888,-22.02665 h 14.54452 L 65.318193,116.44588 H 55.209578 c 0,0 -10.790235,-31.16256 -10.746014,-31.28107 L 33.200199,116.05377 H 23.193497 l -17.325596,-50.9205 14.472832,0.01 c 0,0 7.928345,22.47318 8.034032,22.47318 0,0 8.85e-4,-8.8e-4 8.85e-4,-8.8e-4 z m 77.183541,7.10989 c -0.0367,0.14725 -2.27501,6.28755 -4.52054,12.42761 -2.26411,6.19092 -4.5358,12.38201 -4.56719,12.43021 0.0601,-0.0177 8.09982,-0.0354 13.25244,-0.0354 2.41136,0 4.18941,0.004 4.22257,0.013 -0.0902,-0.23393 -8.36119,-24.53644 -8.38728,-24.83537 z m 59.80526,3.47721 c 0.0703,0.0663 -0.0268,12.19183 -0.0268,12.19183 0,0 2.135,0.51389 8.18,0.51389 6.79674,0 8.17675,-0.10575 9.62322,-0.73413 4.88198,-2.1226 5.14247,-8.39289 0.45948,-11.17527 -1.02549,-0.61069 -2.34326,-0.71204 -9.71045,-0.75228 z m 3.55926,3.55667 4.94721,0.025 c 2.84296,0.0155 7.12057,0.0389 7.95458,0.27551 1.06439,0.64607 1.65806,1.64526 1.5935,2.68003 -0.0354,0.55895 -0.30128,1.58672 -1.68938,2.18945 -0.77386,0.33608 -2.00776,0.44135 -8.21195,0.44135 -1.96783,0 -3.48602,-0.0575 -4.62073,-0.12956 0.006,-0.8937 0.0115,-1.89559 0.0173,-2.8994 0.004,-0.88442 0.008,-1.77054 0.01,-2.58243 z m -63.50444,3.71472 c 0.29319,0.86496 0.61287,1.80618 0.95956,2.82945 0.28567,0.84285 1.54106,4.54136 2.61784,7.70669 -3.20159,0 -5.61144,3.6e-4 -7.4329,0.004 0.66994,-1.82588 1.57213,-4.29387 2.79749,-7.64537 0.38427,-1.05069 0.73564,-2.01246 1.05801,-2.89423 z"/>
</svg>