<svg xmlns="http://www.w3.org/2000/svg" viewBox="0 0 280.40598 119.99976">
  <path d="M 134.6875,0 131.14453,0.00585938 50.857422,0.125 c -4.624618,0 -8.920719,1.99712 -12.091797,5.625 -2.571001,2.94157 -4.257007,6.821959 -4.511719,10.380859 -0.430269,5.97468 0.943706,8.13528 7.541016,15.56836 1.914763,2.15666 3.736155,4.206975 4.34375,5.078125 -0.0097,0.0349 -0.02008,0.05741 -0.02539,0.07031 -0.0066,0.005 -0.0171,0.01374 -0.03125,0.02344 l -0.361328,0.251953 H 3.5371094 0 v 3.539062 14.207032 3.539062 h 3.5371094 27.5371096 2.183593 1.96875 c 12.612677,0 18.838181,-0.01245 22.50586,-0.28125 4.196559,-0.30734 5.535157,-1.027737 7.541016,-2.273437 l 0.251953,-0.154297 c 6.30678,-3.90072 9.555631,-13.190085 6.818359,-19.490235 -0.844618,-1.92715 -6.191676,-8.732513 -6.798828,-9.501953 -1.678624,-2.1257 -4.450001,-5.633127 -4.888672,-6.648437 0.01061,-0.0854 0.03258,-0.174868 0.05469,-0.236328 0.07296,-0.0186 0.211457,-0.04297 0.441406,-0.04297 l 26.029297,-0.07422 v 35.164063 3.537109 h 3.537109 15.101558 3.53711 V 54.869141 19.726562 h 21.79297 3.53711 V 16.189453 3.5410156 Z m 10.68359,0.41601562 -0.82226,2.38281248 -17.57422,50.9179689 -1.61914,4.691406 h 4.96484 14.75586 2.60352 l 0.77539,-2.486328 1.5293,-4.917969 20.62109,0.0918 1.5918,5.205078 0.75976,2.490235 2.60547,0.01367 14.49023,0.08008 4.9961,0.02734 -1.63281,-4.720703 -17.76758,-51.394531 -0.82617,-2.38085938 h -2.51954 -24.41015 z m 54.81055,0 V 3.953125 54.869141 58.40625 h 3.53906 16.38086 3.54883 l -0.0117,-3.548828 -0.0391,-11.150391 0.37109,0.353516 c 11.04902,10.51263 14.30897,12.900146 16.45899,13.628906 1.65076,0.55674 4.41287,0.716797 19.53906,0.716797 h 16.83203 3.60522 l 2e-5,-21.458487 c 0,0 -20.19574,0.142011 -30.09157,0 l -0.55078,-0.428232 c -0.17512,-0.13664 -0.38837,-0.317184 -0.61523,-0.521484 0.19723,-0.11674 0.37905,-0.223546 0.53515,-0.316406 6.63446,-3.95909 10.11066,-10.351037 9.53711,-17.535157 -0.38162,-4.84617 -1.24618,-7.029621 -4.20898,-10.6132809 -2.9115,-3.52396 -6.90877,-5.8818687 -11.25391,-6.63671872 C 241.34335,0.47771437 229.21896,0.41601562 222.20508,0.41601562 H 203.7207 Z M 223.32812,17.753906 h 4.38282 c 6.20286,0 7.43044,0.104777 8.1875,0.435547 1.43718,0.62263 1.5845,0.924036 1.69726,2.191406 0.11321,1.25941 -0.0438,1.766525 -1.29297,2.703125 -0.0411,0.0305 -0.0716,0.05327 -0.0976,0.07227 -0.82471,0.15256 -3.88489,0.154297 -7.71485,0.154297 h -5.16015 z m -62.82617,4.019532 c 1.30363,3.822449 2.74681,8.06628 3.79883,11.18164 l -7.7832,0.01172 c 1.09138,-3.1074 2.6091,-7.366039 3.98437,-11.19336 z m -32.84179,39.412109 -2.51758,0.0039 -24.14063,0.02148 -2.519528,0.0039 -0.820313,2.380859 -17.591797,50.955074 -1.601562,4.64063 4.908203,0.0508 14.371094,0.15234 2.667973,0.0273 0.76171,-2.55665 1.53125,-5.1582 20.72071,0.16602 1.63867,5.24023 0.78125,2.49219 2.61133,-0.0117 14.51758,-0.0644 4.95117,-0.0234 -1.62696,-4.67578 -17.81445,-51.261718 z m 116.23828,0.210937 c -7.08948,0 -11.28181,2.798805 -13.55078,5.146485 -3.69112,3.81759 -4.56092,8.624305 -4.49414,10.890625 0.004,0.18882 0.002,0.383847 0,0.585937 -0.0323,3.68315 0.50878,7.852242 7.36523,14.701172 1.35537,1.5265 3.62347,4.085622 4.48047,5.357422 -1.87408,0.23039 -6.62428,0.230469 -11.61328,0.230469 h -2.11914 -2.57227 c -8.80172,0 -16.22294,-0.02586 -17.74414,-0.326172 -0.2127,-0.13886 -0.51172,-0.377329 -0.83984,-0.66211 3.04107,-1.872749 6.11666,-4.775702 7.56445,-7.257812 0.87867,-1.50926 1.84708,-4.08745 2.25391,-6 0.9021,-4.25626 -0.58607,-9.392434 -3.98047,-13.740234 -3.96042,-5.07257 -9.7214,-8.106842 -15.80664,-8.326172 l -0.0645,-0.002 h -0.0645 -15.38477 -20.01757 -3.54493 l 0.006,3.544921 0.0977,50.843745 0.008,3.51563 3.51563,0.0156 15.87304,0.0703 3.53321,0.0156 0.0215,-3.53125 0.0684,-11.81055 c 0.32414,0.30777 0.65792,0.62714 1.00195,0.95703 10.7134,10.27693 14.31087,13.12339 17.4961,13.84375 0.87513,0.19501 2.32234,0.51832 28.08984,0.5254 h 1.23047 c 13.94992,0 20.95007,0.002 25.11524,-0.4004 4.77099,-0.46122 6.30705,-1.54521 8.60742,-3.41796 l 0.0742,-0.0606 c 4.72499,-3.84147 7.21888,-9.65363 6.50781,-15.16797 -0.46344,-3.586307 -1.41189,-5.077365 -5.27149,-9.892575 l -1.14648,-1.431641 c -1.34431,-1.67995 -2.96792,-3.708678 -4.05664,-5.074219 -0.87823,-1.098449 -1.57021,-2.07435 -1.98633,-2.71289 0.54657,-0.001 1.25731,-0.002 2.17578,-0.002 7.25001,0 21.61756,0.04793 21.76172,0.04883 l 3.8908,0.01172 0.0532,-20.488282 h -3.89665 z M 0.92578125,61.591797 2.5175781,66.273438 19.84375,117.19336 l 0.816406,2.39844 h 2.533203 10.007813 2.474609 l 0.84961,-2.32618 7.820312,-21.447261 c 0.673926,1.96075 1.402541,4.073997 2.130859,6.185551 2.692608,7.80719 5.390625,15.59961 5.390626,15.59961 l 0.824218,2.38086 h 2.517578 10.109375 2.525391 l 0.820312,-2.39063 17.546876,-51.126953 1.609374,-4.685547 H 82.865234 68.320312 65.796875 l -0.820313,2.384766 c -1.315128,3.81847 -3.062233,8.857936 -4.554687,13.123046 -0.225084,-0.64696 -0.458842,-1.325159 -0.701172,-2.037109 L 55.886719,63.992188 55.072266,61.595703 H 52.539062 36.287109 33.783203 l -0.832031,2.363281 -4.623047,13.136719 c -1.526946,-4.29207 -3.297232,-9.295139 -4.650391,-13.130859 l -0.832031,-2.357422 -2.501953,-0.002 -14.4726562,-0.0098 z M 176.83594,79.275391 l 4.94726,0.02539 c 2.84296,0.0155 7.11912,0.03878 7.95313,0.275391 1.06439,0.64607 1.65831,1.644917 1.59375,2.679687 -0.0354,0.55895 -0.30135,1.586724 -1.68946,2.189453 -0.77386,0.33608 -2.00674,0.441407 -8.21093,0.441407 -1.96783,0 -3.48639,-0.05685 -4.6211,-0.128907 0.006,-0.893699 0.0118,-1.894627 0.0176,-2.898437 0.004,-0.88442 0.008,-1.772094 0.01,-2.583984 z m -63.50586,3.716797 c 0.29304,0.864519 0.61446,1.805488 0.96094,2.828124 0.28567,0.84285 1.5404,4.541702 2.61718,7.707032 -3.20159,0 -5.61213,2.66e-4 -7.43359,0.0039 0.66994,-1.82588 1.57347,-4.293031 2.79883,-7.644531 0.38427,-1.05069 0.73427,-2.012761 1.05664,-2.894531 z"/>
</svg>