<svg xmlns="http://www.w3.org/2000/svg" viewBox="0 0 512 512">
  <path d="M 255.90039 40.5 C 198.30039 40.5 144.2 62.899609 103.5 103.59961 C 62.8 144.29961 40.5 198.4 40.5 256 C 40.5 265.2 41.099219 274.30078 42.199219 283.30078 C 5.4992187 329.40078 -5.9007813 370.1 10.199219 398 C 22.599219 419.5 49.699219 430.59961 88.199219 430.59961 C 99.699219 430.59961 112.19961 429.59961 125.59961 427.59961 C 162.89961 456.09961 208.3 471.5 256 471.5 C 313.6 471.5 367.70039 449.10039 408.40039 408.40039 C 449.10039 367.70039 471.5 313.6 471.5 256 C 471.5 246.9 470.90078 237.80039 469.80078 228.90039 C 488.00078 206.00039 500.50039 183.7 505.90039 163.5 C 511.10039 144.3 509.70078 127.69961 501.80078 114.09961 C 485.70078 86.199609 444.80039 75.8 386.40039 84.5 C 349.10039 56 303.70039 40.5 255.90039 40.5 z M 256 56.5 C 355.2 56.5 437.60039 129.19961 452.90039 224.09961 C 419.20039 264.39961 366.90078 307.10039 305.80078 342.40039 C 245.20078 377.40039 183.09961 401.39961 130.09961 410.59961 C 85.199609 373.99961 56.5 318.3 56.5 256 C 56.5 146 146 56.5 256 56.5 z M 422.39453 97.480469 C 455.35994 97.263846 478.55 105.73086 488 122.09961 C 493.6 131.89961 494.5 144.40078 490.5 159.30078 C 486.5 174.10078 478.1 190.40078 466 207.30078 C 457 168.30078 437.40039 132.59961 408.40039 103.59961 C 406.70039 101.89961 404.89961 100.2 403.09961 98.5 C 409.84961 97.859375 416.28983 97.520584 422.39453 97.480469 z M 173 167.80078 C 135.9 167.80078 105.69922 197.99961 105.69922 235.09961 C 105.69922 272.19961 135.9 302.40039 173 302.40039 C 210.1 302.40039 240.30078 272.19961 240.30078 235.09961 C 240.30078 197.99961 210.1 167.80078 173 167.80078 z M 349.30078 171.59961 C 327.10078 171.59961 309 189.70039 309 211.90039 C 309 234.10039 327.10078 252.19922 349.30078 252.19922 C 371.50078 252.19922 389.59961 234.10039 389.59961 211.90039 C 389.59961 189.70039 371.50078 171.59961 349.30078 171.59961 z M 173 183.80078 C 201.3 183.80078 224.30078 206.79961 224.30078 235.09961 C 224.30078 263.39961 201.3 286.40039 173 286.40039 C 144.7 286.40039 121.69922 263.39961 121.69922 235.09961 C 121.69922 206.79961 144.7 183.80078 173 183.80078 z M 349.30078 187.59961 C 362.70078 187.59961 373.59961 198.50039 373.59961 211.90039 C 373.59961 225.30039 362.70078 236.19922 349.30078 236.19922 C 335.90078 236.19922 325 225.30039 325 211.90039 C 325 198.50039 335.90078 187.59961 349.30078 187.59961 z M 455.30078 246 C 455.40078 249.3 455.5 252.7 455.5 256 C 455.5 292.6 445.60078 326.90039 428.30078 356.40039 C 420.30078 351.90039 411.2 349.40039 402.5 349.40039 C 374.3 349.40039 351.40039 372.3 351.40039 400.5 C 351.40039 409.5 354.10078 418.90039 358.80078 426.90039 C 328.80078 445.00039 293.6 455.5 256 455.5 C 216.1 455.5 179.00078 443.7 147.80078 423.5 C 199.10078 412.4 257.20078 389.00078 313.80078 356.30078 C 371.40078 323.10078 420.60078 284.2 455.30078 246 z M 46 304.80078 C 55 343.70078 74.699609 379.50039 103.59961 408.40039 C 105.39961 410.20039 107.1 411.89961 109 413.59961 C 65.8 417.69961 35.2 409.4 24 390 C 12.8 370.6 20.8 340.00078 46 304.80078 z M 402.5 365.40039 C 408.2 365.40039 414.29922 367.10039 419.69922 369.90039 C 406.69922 388.50039 390.59922 404.79961 372.19922 418.09961 C 369.19922 412.59961 367.40039 406.3 367.40039 400.5 C 367.40039 381.1 383.1 365.40039 402.5 365.40039 z "/>
</svg>