<svg xmlns="http://www.w3.org/2000/svg" viewBox="0 0 512 512">
  <path d="M 256.19922 89.199219 C 237.89922 89.199219 220.00039 93.000781 211.40039 94.800781 C 210.30039 95.000781 209.39922 95.200391 208.69922 95.400391 C 189.59922 99.300391 172.60039 110 160.90039 125.5 C 154.80039 133.4 149.60078 141.30039 145.30078 148.90039 C 135.20078 167.00039 127.00039 186.99922 122.90039 197.69922 L 122.80078 197.59961 C 122.70078 197.79961 122.29922 198.80039 121.69922 200.40039 C 117.59922 208.20039 109.29922 212.99922 100.69922 212.19922 C 100.39922 212.09922 100.10078 212.09961 99.800781 212.09961 C 94.600781 210.49961 60.899219 200.5 45.699219 200 C 31.999219 199.5 20.299609 209.30039 13.099609 217.40039 C 12.099609 218.20039 11.199609 219.10078 10.599609 220.30078 C 8.2996094 223.10078 6.7003906 225.39961 5.9003906 226.59961 C 3.9003906 229.59961 -2.3003906 239.50078 1.0996094 247.30078 C 2.5996094 250.70078 5.6003906 252.99961 9.4003906 253.59961 L 9.5 253.59961 C 10.3 253.69961 11.300781 253.80039 12.800781 253.90039 C 34.600781 255.50039 47.999219 259.79922 52.699219 266.69922 C 59.499219 276.59922 85.800391 306.00039 125.40039 321.90039 C 127.30039 322.60039 128.89922 324.20078 129.69922 326.30078 C 134.49922 338.60078 144.50039 361.3 156.90039 375 L 158.59961 376.80078 C 175.39961 395.20078 200.69922 423.09961 256.19922 423.09961 C 310.99922 423.09961 336.59961 395.60039 353.59961 377.40039 C 354.29961 376.60039 355.10078 375.8 355.80078 375 C 368.30078 361.3 378.2 338.60039 383 326.40039 C 383.8 324.40039 385.40039 322.7 387.40039 322 C 427.00039 306.1 453.3 276.70078 460 266.80078 C 464.6 260.00078 477.90039 255.69961 499.40039 254.09961 C 501.10039 253.99961 502.29922 253.89922 503.19922 253.69922 C 506.89922 253.19922 509.90039 250.99922 511.40039 247.69922 C 514.60039 240.09922 509.09961 230.39961 506.59961 226.59961 C 503.49961 221.99961 487.29922 199.00039 466.69922 199.90039 C 451.49922 200.50039 417.79961 210.5 412.59961 212 C 412.39961 212 412.09922 212.09961 411.69922 212.09961 C 402.19922 212.99961 393.19922 207.19961 389.69922 198.09961 C 385.69922 187.59961 377.39961 167.20078 367.09961 148.80078 C 363.09961 141.70078 358.09961 134.1 351.59961 125.5 C 339.89961 110 322.89922 99.300391 303.69922 95.400391 C 302.99922 95.300391 302.1 95.100781 301 94.800781 C 292.4 93.000781 274.49922 89.199219 256.19922 89.199219 z M 256.19922 105.09961 C 272.79922 105.09961 289.59922 108.60039 297.69922 110.40039 C 298.79922 110.60039 299.8 110.8 300.5 111 C 315.8 114.2 329.40078 122.69961 338.80078 135.09961 C 344.80078 143.09961 349.49961 150.09961 353.09961 156.59961 C 359.09961 167.49961 364.49961 179.10078 368.59961 188.80078 C 365.59961 186.30078 362.39961 183.90078 359.09961 181.80078 C 338.69961 168.90078 323.80039 169 317.40039 169 L 316.90039 169 C 305.40039 169 282.70039 180.9 271.90039 195 C 270.90039 195.5 268.8 196.40039 267.5 196.90039 C 262.3 198.90039 257.4 200.80078 256.5 206.30078 C 256 209.20078 257.10078 212.19922 259.30078 214.19922 C 264.10078 218.69922 270.5 225.40039 275.5 232.90039 C 275 237.40039 275.79922 242.60039 278.69922 248.40039 C 271.79922 250.10039 266.30039 248.60039 262.90039 246.90039 C 258.50039 244.70039 253.19922 244.70039 248.69922 246.90039 C 245.29922 248.60039 239.90039 250.10039 232.90039 248.40039 C 235.90039 242.60039 236.59961 237.40039 236.09961 232.90039 C 241.09961 225.30039 247.60078 218.59922 252.30078 214.19922 C 254.60078 212.19922 255.59961 209.20078 255.09961 206.30078 C 254.19961 200.80078 249.29961 198.90039 244.09961 196.90039 C 242.79961 196.40039 240.69922 195.6 239.69922 195 C 228.99922 180.9 206.29922 169 194.69922 169 L 194.19922 169 C 187.79922 169 172.9 169.00078 152.5 181.80078 C 149.4 183.80078 146.39961 186.00078 143.59961 188.30078 C 148.09961 178.70078 153.40078 167.29961 159.30078 156.59961 C 163.10078 149.69961 167.89961 142.49961 173.59961 135.09961 C 182.99961 122.69961 196.60039 114.2 211.90039 111 C 212.70039 110.8 213.59922 110.60039 214.69922 110.40039 C 222.79922 108.70039 239.59922 105.09961 256.19922 105.09961 z M 194.5 184.80078 L 195 184.80078 C 200.2 184.80078 219.2 193.50039 227.5 204.90039 C 229.1 207.10039 231.39961 208.50078 234.09961 209.80078 C 231.99961 212.10078 229.90078 214.49922 227.80078 217.19922 C 221.10078 210.39922 210.09922 203.80078 192.69922 203.80078 C 165.49922 203.80078 153.30078 221.8 149.30078 229.5 L 132.19922 226.59961 C 132.29922 226.09961 132.40039 225.70078 132.40039 225.30078 C 135.40039 220.70078 146.70039 204.59922 161.40039 195.19922 C 177.90039 184.79922 189.1 184.80078 194.5 184.80078 z M 316.90039 184.80078 L 317.40039 184.80078 C 322.80039 184.80078 334 184.79922 350.5 195.19922 C 365.3 204.59922 376.79961 221.00039 379.59961 225.40039 C 379.59961 225.80039 379.69922 226.1 379.69922 226.5 L 362.59961 229.5 C 358.59961 221.7 346.39922 203.80078 319.19922 203.80078 C 301.79922 203.80078 290.79961 210.39922 284.09961 217.19922 C 281.99961 214.59922 279.90078 212.10078 277.80078 209.80078 C 280.50078 208.60078 282.90039 207.10039 284.40039 204.90039 C 292.70039 193.50039 311.70039 184.80078 316.90039 184.80078 z M 45.099609 215.80078 C 56.799609 216.30078 85.600781 224.4 95.800781 227.5 L 96.599609 227.69922 C 97.199609 227.79922 97.799609 227.90039 98.099609 227.90039 L 98.800781 228 C 104.80078 228.6 110.79922 227.69961 116.19922 225.59961 C 113.99922 243.59961 113.99961 269.89961 122.59961 303.09961 C 91.699609 288.19961 71.000781 265.09961 65.800781 257.59961 C 55.500781 242.39961 30.4 239.19961 17.5 238.09961 C 17.9 237.29961 18.399609 236.4 19.099609 235.5 L 19.199219 235.40039 C 19.899219 234.40039 20.699609 233.2 21.599609 232 C 33.799609 233 70.800781 237.79961 92.300781 260.59961 C 93.900781 262.29961 95.999609 263.09961 98.099609 263.09961 C 100.09961 263.09961 101.99961 262.40039 103.59961 260.90039 C 106.79961 257.90039 107.00039 252.79961 103.90039 249.59961 C 84.600391 229.09961 56.100781 221.00078 37.300781 217.80078 C 39.900781 216.50078 42.499609 215.70078 45.099609 215.80078 z M 467.40039 215.90039 C 469.90039 215.80039 472.49961 216.50078 475.09961 217.80078 C 456.19961 221.00078 427.49961 229.09922 408.09961 249.69922 C 405.09961 252.89922 405.20039 258 408.40039 261 C 409.90039 262.5 411.90039 263.19922 413.90039 263.19922 C 416.00039 263.19922 418.19922 262.39922 419.69922 260.69922 C 441.29922 237.69922 478.90078 233 490.80078 232 C 491.70078 233.2 492.59922 234.40039 493.19922 235.40039 C 493.79922 236.40039 494.40078 237.29922 494.80078 238.19922 C 476.80078 239.79922 455.99961 243.69961 446.59961 257.59961 C 441.39961 265.19961 420.6 288.50039 389.5 303.40039 C 398.1 270.00039 398.10039 243.6 395.90039 225.5 C 401.40039 227.8 407.49922 228.69961 413.69922 228.09961 L 414.40039 228 C 414.80039 228 415.30039 227.90078 415.90039 227.80078 L 416.69922 227.59961 C 426.79922 224.49961 455.70039 216.40039 467.40039 215.90039 z M 192.80078 219.80078 C 204.30078 219.80078 213.00078 223.6 218.80078 231 L 219.09961 231.40039 L 219.5 231.80078 C 219.5 231.80078 219.70078 232.00078 219.80078 232.30078 C 218.30078 239.20078 201.89922 250.40039 192.69922 250.40039 C 183.19922 250.40039 167.30078 241.09922 164.80078 234.69922 C 169.20078 227.49922 177.50078 219.80078 192.80078 219.80078 z M 319.19922 219.80078 C 334.49922 219.80078 342.79922 227.39922 347.19922 234.69922 C 344.69922 241.09922 328.80078 250.40039 319.30078 250.40039 C 310.10078 250.40039 293.79922 239.20078 292.19922 232.30078 C 292.29922 232.00078 292.49961 231.79922 292.59961 231.69922 L 293.19922 231 C 298.89922 223.6 307.69922 219.80078 319.19922 219.80078 z M 192.40039 223.5 A 10 10 0 0 0 182.40039 233.5 A 10 10 0 0 0 192.40039 243.5 A 10 10 0 0 0 202.40039 233.5 A 10 10 0 0 0 192.40039 223.5 z M 319.59961 223.5 A 10 10 0 0 0 309.59961 233.5 A 10 10 0 0 0 319.59961 243.5 A 10 10 0 0 0 329.59961 233.5 A 10 10 0 0 0 319.59961 223.5 z M 381.09961 242.5 C 381.49961 260.9 379.09961 287.69961 367.59961 320.59961 L 367.90039 320.69922 C 364.10039 330.09922 354.80039 352.1 343.90039 364 C 343.20039 364.8 342.39922 365.60039 341.69922 366.40039 C 325.69922 383.50039 303.9 407 256 407 C 207.7 407 186.10078 383.30039 170.30078 365.90039 L 168.59961 364.09961 C 157.49961 351.99961 148.1 329.8 144.5 320.5 C 133.3 288.5 130.59961 262.09961 131.09961 242.59961 L 146.69922 245.30078 C 148.69922 245.60078 150.6 245.59922 152.5 245.19922 C 155.4 249.49922 159.8 253.59922 165.5 257.19922 C 174.4 262.79922 184.79922 266.30078 192.69922 266.30078 C 194.39922 266.30078 196.1 266.10078 198 265.80078 C 190.6 274.70078 182.30039 285.4 176.90039 294.5 C 165.10039 314.4 156.4 336.90078 156 337.80078 C 154.4 341.90078 156.49961 346.59961 160.59961 348.09961 C 161.49961 348.49961 162.5 348.59961 163.5 348.59961 C 166.7 348.59961 169.7 346.6 171 343.5 C 171.1 343.3 179.59922 321.29961 190.69922 302.59961 C 198.99922 288.59961 215.30078 269.9 222.80078 261.5 C 223.20078 261.7 223.50039 261.8 223.90039 262 C 229.50039 264.1 234.59922 264.90039 239.19922 264.90039 C 246.69922 264.90039 252.49961 262.8 256.09961 261 C 261.79961 263.8 273.49922 267.6 288.19922 262 C 288.59922 261.9 288.90078 261.7 289.30078 261.5 C 296.80078 269.8 313.10039 288.49961 321.40039 302.59961 C 332.50039 321.29961 340.99961 343.3 341.09961 343.5 C 342.29961 346.7 345.39961 348.59961 348.59961 348.59961 C 349.59961 348.59961 350.5 348.39961 351.5 348.09961 C 355.6 346.49961 357.69961 341.90078 356.09961 337.80078 C 355.69961 336.90078 346.99922 314.3 335.19922 294.5 C 329.79922 285.3 321.59961 274.69922 314.09961 265.69922 C 315.89961 265.99922 317.70039 266.19922 319.40039 266.19922 C 327.30039 266.19922 337.69961 262.69961 346.59961 257.09961 C 352.29961 253.39961 356.69961 249.39961 359.59961 245.09961 C 361.49961 245.49961 363.40039 245.49922 365.40039 245.19922 L 381.09961 242.5 z M 212.09961 302.80078 C 204.09961 302.80078 196.70078 306.5 191.80078 313 L 185.69922 321.19922 C 183.09922 324.69922 183.80078 329.80039 187.30078 332.40039 C 188.70078 333.50039 190.39961 334 192.09961 334 C 194.49961 334 197 332.90078 198.5 330.80078 L 204.59961 322.59961 C 206.39961 320.19961 209.09961 318.80078 212.09961 318.80078 C 217.79961 318.80078 222.1 320.00039 227.5 321.40039 C 234.7 323.30039 242.90078 325.49961 255.80078 325.59961 L 255.90039 325.59961 L 256 325.59961 L 256.09961 325.59961 L 256.19922 325.59961 C 269.19922 325.59961 277.3 323.40039 284.5 321.40039 C 289.9 319.90039 294.20039 318.80078 299.90039 318.80078 C 302.90039 318.80078 305.60039 320.19961 307.40039 322.59961 L 313.5 330.80078 C 315.1 332.90078 317.50039 334 319.90039 334 C 321.60039 334 323.19922 333.50039 324.69922 332.40039 C 328.19922 329.80039 329.00078 324.79922 326.30078 321.19922 L 320.19922 313 C 315.29922 306.5 307.90039 302.80078 299.90039 302.80078 C 292.10039 302.80078 286.10078 304.4 280.30078 306 C 273.70078 307.8 266.9 309.59961 256 309.59961 C 245.1 309.59961 238.29922 307.8 231.69922 306 C 225.89922 304.4 219.89961 302.80078 212.09961 302.80078 z "/>
</svg>