<svg xmlns="http://www.w3.org/2000/svg" viewBox="0 0 512 512">
  <path d="M 256 1 C 187.9 1 123.89922 27.499219 75.699219 75.699219 C 39.799219 111.59922 15.899609 156.3 6.0996094 205 C 5.9996094 205.3 6.0003906 205.60039 5.9003906 205.90039 C 3.3003906 219.20039 1.6992188 232.79961 1.1992188 246.59961 C 1.0992187 247.19961 1.0996094 247.70078 1.0996094 248.30078 C 1.0996094 250.80078 1 253.4 1 256 C 1 310.3 17.899609 361.99922 49.099609 405.19922 C 49.099609 405.19922 49.099219 405.30078 49.199219 405.30078 C 57.099219 416.20078 65.899219 426.60078 75.699219 436.30078 C 123.89922 484.50078 187.9 511 256 511 C 324.1 511 388.10078 484.50078 436.30078 436.30078 C 484.50078 388.10078 511 324.1 511 256 C 511 187.9 484.50078 123.89922 436.30078 75.699219 C 388.10078 27.499219 324.1 1 256 1 z M 256 17 C 319.8 17 379.9 41.9 425 87 C 445.8 107.8 462.3 131.80078 474 157.80078 C 460.1 168.70078 414.20078 202.00078 339.80078 231.80078 C 194.20078 289.90078 63.3 312.20078 25 317.80078 C 22.9 310.00078 21.3 302.09961 20 294.09961 C 38.6 291.39961 58.199609 288.19922 77.099609 284.69922 C 132.49961 274.39922 188.10078 259.19961 225.80078 244.09961 C 229.90078 242.49961 231.89922 237.79922 230.19922 233.69922 C 228.59922 229.59922 223.90078 227.60078 219.80078 229.30078 C 183.00078 244.10078 128.59961 258.89961 74.099609 269.09961 C 55.399609 272.59961 36.200391 275.70039 17.900391 278.40039 C 17.200391 271.10039 16.900391 263.59922 16.900391 256.19922 L 16.900391 254.90039 C 25.800391 253.70039 39.700781 251.6 57.800781 248.5 C 88.500781 243.3 131.90078 234.60078 164.80078 222.80078 C 169.00078 221.30078 171.09961 216.69961 169.59961 212.59961 C 168.09961 208.39961 163.50039 206.30078 159.40039 207.80078 C 127.60039 219.20078 85.1 227.60078 55 232.80078 C 38.8 235.60078 26.200391 237.49922 17.400391 238.69922 C 18.000391 230.49922 19.000391 222.5 20.400391 214.5 C 27.500391 213.5 34.899609 212.40078 42.599609 211.30078 C 61.999609 208.20078 90.799609 202.70078 113.59961 196.30078 C 117.89961 195.10078 120.29961 190.70039 119.09961 186.40039 C 117.89961 182.10039 113.49922 179.70039 109.19922 180.90039 C 87.099219 187.10039 58.9 192.5 40 195.5 C 34.4 196.4 29.000781 197.20039 23.800781 197.90039 C 25.900781 189.40039 28.499609 181.00078 31.599609 172.80078 C 47.799609 170.40078 69.299219 166.80078 87.199219 162.30078 C 91.499219 161.20078 94.1 156.89961 93 152.59961 C 91.9 148.29961 87.600781 145.70078 83.300781 146.80078 C 69.000781 150.30078 52.100781 153.4 38.800781 155.5 C 50.800781 130.2 66.9 107.1 87 87 C 132.1 41.9 192.2 17 256 17 z M 279.11133 32.544922 C 270.3836 32.558786 261.84609 33.602344 253.69922 35.699219 C 229.79922 41.899219 211.90078 56.4 203.30078 76.5 C 194.30078 97.6 196.59922 121.99961 209.69922 145.09961 C 222.09922 167.09961 242.89922 185.3 268.19922 196.5 C 284.79922 203.8 302.09922 207.5 318.69922 207.5 C 327.49922 207.5 336.10078 206.50078 344.30078 204.30078 C 368.20078 198.10078 386.09922 183.6 394.69922 163.5 C 403.69922 142.4 401.40078 118.00039 388.30078 94.900391 C 375.90078 73.000391 355.10078 54.699609 329.80078 43.599609 C 313.13203 36.249609 295.77335 32.518454 279.11133 32.544922 z M 279.40039 48.400391 C 307.60039 48.500391 336.99922 60.899219 357.69922 81.199219 L 330.09961 95 C 317.19961 82.9 298.30039 76.799219 281.40039 80.199219 L 261.59961 50.199219 C 267.39961 48.999219 273.40039 48.400391 279.40039 48.400391 z M 245.80078 55.400391 L 266.40039 86.599609 C 261.50039 90.099609 257.70078 94.700781 255.30078 100.30078 C 251.30078 109.80078 252.00078 120.89922 257.30078 131.19922 L 228.80078 145.30078 C 227.00078 142.70078 225.19922 139.99922 223.69922 137.19922 C 213.09922 118.49922 211.09961 99.200781 218.09961 82.800781 C 223.19961 70.700781 232.90078 61.300391 245.80078 55.400391 z M 368.5 93.699219 C 370.6 96.599219 372.60078 99.599219 374.30078 102.69922 C 384.90078 121.49922 386.90039 140.79922 379.90039 157.19922 C 374.60039 169.69922 364.39922 179.40078 350.69922 185.30078 L 330.30078 154.40039 C 335.80078 150.80039 340.09961 145.90039 342.59961 139.90039 C 346.79961 130.10039 345.79961 118.50039 340.09961 107.90039 L 368.5 93.699219 z M 290.90039 95.300781 C 304.50039 95.300781 319.30039 103.29922 325.90039 115.19922 C 329.50039 121.59922 330.20039 128.1 327.90039 133.5 C 325.80039 138.5 321.09922 142.20078 314.69922 143.80078 C 299.49922 147.70078 279.9 139.00078 272 124.80078 C 268.5 118.50078 267.7 111.9 270 106.5 C 272.1 101.5 276.79922 97.799219 283.19922 96.199219 C 285.69922 95.599219 288.30039 95.300781 290.90039 95.300781 z M 267 144.19922 C 277.6 154.59922 292.5 160.80078 307 160.80078 C 309.7 160.80078 312.4 160.59961 315 160.09961 L 334.69922 190 C 301.89922 196.1 264.10039 182.70039 239.40039 157.90039 L 267 144.19922 z M 480.30078 173.19922 C 490.00078 199.39922 495 227.3 495 256 C 495 319.8 470.1 379.9 425 425 C 379.9 470.1 319.8 495 256 495 C 217.8 495 181.1 486.10078 148 469.30078 C 165.8 465.10078 181.30039 460.69961 194.40039 456.09961 C 198.60039 454.59961 200.80078 450.10039 199.30078 445.90039 C 197.80078 441.70039 193.29961 439.5 189.09961 441 C 172.49961 446.8 151.70078 452.3 127.30078 457.5 C 118.90078 452.1 110.8 446.19922 103 439.69922 C 129.2 433.89922 154.69922 426.90078 174.69922 419.80078 C 178.89922 418.30078 180.99961 413.79961 179.59961 409.59961 C 178.19961 405.39961 173.60039 403.29922 169.40039 404.69922 C 147.20039 412.59922 117.9 420.40039 88.5 426.40039 C 88 425.90039 87.5 425.4 87 425 C 81 419 75.3 412.69961 70 406.09961 C 108.3 398.89961 147.80078 388.99961 177.80078 379.09961 C 182.00078 377.69961 184.30039 373.2 182.90039 369 C 181.50039 364.8 177.00078 362.50039 172.80078 363.90039 C 136.20078 376.00039 91.200781 386.10078 59.300781 391.80078 C 54.400781 384.80078 50.000391 377.49961 45.900391 370.09961 C 79.500391 364.39961 153.9 350.20039 209.5 329.40039 C 213.6 327.80039 215.69922 323.19961 214.19922 319.09961 C 212.59922 314.99961 208.00039 312.90039 203.90039 314.40039 C 146.80039 335.80039 68.800391 350.09961 38.400391 355.09961 C 35.100391 347.99961 32.199219 340.69922 29.699219 333.19922 C 71.299219 326.89922 201.49922 304.09961 345.69922 246.59961 C 417.19922 217.99961 462.40078 186.79922 480.30078 173.19922 z "/>
</svg>