<svg xmlns="http://www.w3.org/2000/svg" viewBox="0 0 512 512">
  <path d="M 86.833984 18.806641 C 86.125586 18.823633 85.411719 18.8875 84.699219 19 C 84.299219 19 83.9 19.099609 83.5 19.099609 C 82.9 19.199609 82.299219 19.399219 81.699219 19.699219 C 76.499219 21.499219 72.600391 25.800781 71.400391 31.300781 L 36.900391 188.59961 L 23 259.09961 L 23 261.5 L 36.900391 331.90039 L 36.900391 332.09961 L 71.599609 473.19922 C 72.999609 478.89922 77.4 483.30078 83 484.80078 C 84.4 485.20078 85.799609 485.30078 87.099609 485.30078 C 91.399609 485.30078 95.599219 483.50078 98.699219 480.30078 L 162.90039 412.69922 C 165.10039 410.49922 166.49961 407.7 167.09961 404.5 L 184.5 304.5 C 189.2 308 193.89961 311.90078 198.59961 316.30078 L 198.69922 316.19922 C 213.19922 331.09922 233.50039 340.30078 255.90039 340.30078 C 278.30039 340.30078 298.59961 330.99922 313.09961 316.19922 L 313.19922 316.30078 C 317.89922 311.90078 322.50078 308 327.30078 304.5 L 344.69922 404.40039 L 344.69922 404.5 C 345.29922 407.7 346.80039 410.49922 348.90039 412.69922 L 413.19922 480.40039 C 416.29922 483.60039 420.50078 485.40039 424.80078 485.40039 C 426.20078 485.40039 427.60039 485.20039 428.90039 484.90039 C 434.60039 483.40039 438.90078 478.90078 440.30078 473.30078 L 475.09961 332.5 L 489 261.80078 L 489 259.40039 L 475.19922 188.90039 L 440.5 31.300781 C 439.2 25.700781 435.20039 21.399609 429.90039 19.599609 C 429.40039 19.399609 428.90039 19.199609 428.40039 19.099609 C 428.10039 18.999609 427.70039 19 427.40039 19 C 421.70039 18.1 416.00078 20.300391 412.30078 24.900391 L 347 110 L 346.69922 110.40039 C 345.89922 111.60039 345.50039 112.69922 345.40039 113.19922 L 345.19922 113.80078 L 327.30078 216.19922 C 322.90078 212.89922 318.49922 209.30078 314.19922 205.30078 L 314.19922 205.40039 C 299.59922 190.00039 278.99961 180.30078 256.09961 180.30078 C 233.19961 180.30078 212.6 190.00039 198 205.40039 L 198 205.30078 C 193.7 209.30078 189.30039 212.99922 184.90039 216.19922 L 167.69922 117.59961 L 167.69922 117.40039 C 166.89922 113.60039 165.39961 110.09961 163.09961 107.09961 L 99.800781 25 L 99.699219 24.900391 C 96.549219 20.875391 91.792773 18.687695 86.833984 18.806641 z M 98 48.900391 L 150.19922 116.90039 C 150.99922 117.90039 151.50078 119.1 151.80078 120.5 L 170.09961 225.69922 C 159.39961 231.59922 148.5 235.49961 137.5 237.09961 L 98 48.900391 z M 413.90039 49 L 374.40039 237.19922 C 363.40039 235.49922 352.50078 231.70078 341.80078 225.80078 L 360.5 118.59961 L 413.90039 49 z M 429.19922 54.199219 L 459.59961 192 L 471.5 252.30078 L 397.59961 252.30078 C 396.09961 248.20078 393.40078 244.69961 389.80078 242.09961 L 429.19922 54.199219 z M 82.800781 54.400391 L 122.30078 242.19922 C 118.70078 244.79922 116.09961 248.30039 114.59961 252.40039 L 40.599609 252.40039 L 52.5 192 L 82.800781 54.400391 z M 256 196.30078 C 291.3 196.30078 320 225.00078 320 260.30078 C 320 295.60078 291.3 324.30078 256 324.30078 C 220.7 324.30078 192 295.60078 192 260.30078 C 192 225.00078 220.7 196.30078 256 196.30078 z M 256 224.30078 C 237.3 224.30078 222 239.60078 222 258.30078 C 222 277.00078 237.3 292.30078 256 292.30078 C 274.7 292.30078 290 277.00078 290 258.30078 C 290 239.60078 274.7 224.30078 256 224.30078 z M 333.19922 239.19922 C 347.09922 247.09922 361.5 251.9 376 253.5 C 379.3 253.9 382.90039 255.8 382.90039 260 L 382.90039 260.30078 L 382.90039 260.59961 C 382.90039 263.59961 381.10078 265.50039 378.80078 266.40039 C 378.30078 266.50039 377.90039 266.70039 377.40039 266.90039 L 375.90039 267.19922 C 361.50039 268.89922 347.09961 273.69961 333.09961 281.59961 C 334.99961 274.79961 336 267.70078 336 260.30078 C 336 253.00078 334.99922 245.99922 333.19922 239.19922 z M 178.80078 239.30078 C 177.00078 246.00078 176 253.00078 176 260.30078 C 176 267.70078 177.00039 274.79961 178.90039 281.59961 C 164.90039 273.69961 150.6 268.89922 136 267.19922 L 134.5 266.90039 C 134.1 266.70039 133.59922 266.6 133.19922 266.5 C 130.89922 265.6 129.09961 263.69922 129.09961 260.69922 L 129.09961 260.40039 L 129.09961 260.09961 C 129.09961 255.79961 132.7 253.89961 136 253.59961 C 150.6 251.99961 164.90078 247.20078 178.80078 239.30078 z M 256 240.30078 C 265.9 240.30078 274 248.40078 274 258.30078 C 274 268.20078 265.9 276.30078 256 276.30078 C 246.1 276.30078 238 268.20078 238 258.30078 C 238 248.40078 246.1 240.30078 256 240.30078 z M 40.599609 268.30078 L 114.40039 268.30078 C 115.90039 272.40078 118.49961 275.99961 122.09961 278.59961 L 83.099609 452.69922 L 52.5 328.59961 L 40.599609 268.30078 z M 397.5 268.30078 L 471.40039 268.30078 L 459.5 328.69922 L 428.90039 452.69922 L 389.80078 278.59961 C 393.40078 275.99961 396 272.40078 397.5 268.30078 z M 137.40039 283.59961 C 148.40039 285.19961 159.3 289 170 295 L 151.5 401.59961 L 98.400391 457.5 L 137.40039 283.59961 z M 374.5 283.59961 L 413.5 457.5 L 360.5 401.59961 L 341.90039 295 C 352.70039 289.1 363.6 285.19961 374.5 283.59961 z "/>
</svg>